# xmcd
#
# Track frame offsets:
#	182
#	11867
#	22482
#	35807
#	46345
#	57020
#	69222
#	79417
#	92635
#	104012
#
# Disc length: 1508
#
# Revision: 2
# Processed by: cddbd v1.5.1PL0 Copyright (c) Steve Scherf et al.
# Submitted via: audiograbber 1.80
# Normalized: r1:DSETVAR1
#
DISCID=8905e20a
DTITLE=Various Artist - Billboard 1966 Top Country Hits
DYEAR=1900
DGENRE=
TTITLE0=Jack Green - There Goes My Everything
TTITLE1=Bill Anderson - I Get the Fever
TTITLE2=David Houston - Almost Persuaded
TTITLE3=Buck Owens - Waitin' In Your Welfare Line
TTITLE4=The Statler Brothers - Flowers on the Wall
TTITLE5=Eddy Arnold - I Want to Go With You
TTITLE6=Loretta Lynn - You Ain't Woman Enough
TTITLE7=Jim Reeves - Distant Drums
TTITLE8=Sonny James - Take Good Care of Her
TTITLE9=The Hardin Trio - Tippy Toeing
EXTD=
EXTT0=
EXTT1=
EXTT2=
EXTT3=
EXTT4=
EXTT5=
EXTT6=
EXTT7=
EXTT8=
EXTT9=
PLAYORDER=
